<svg width="54" height="50" viewBox="0 0 54 50" fill="none" xmlns="http://www.w3.org/2000/svg">
<path d="M52.6199 33.6861C50.8655 36.8614 48.7603 37.7434 47.8831 38.0962C47.7076 38.0962 47.5322 38.2726 47.5322 38.449C47.5322 38.6254 47.3568 38.8018 47.5322 38.8018C47.7076 39.8602 47.8831 42.1535 46.1287 45.1523C43.848 49.0332 38.9357 51.6793 33.848 48.6804C28.4094 45.5051 28.234 36.5086 28.234 32.0985C28.234 31.7457 28.4094 31.5693 28.7603 31.5693C29.462 31.3929 30.3392 30.8637 30.8655 30.3345C31.041 30.1581 31.5673 29.9817 31.7427 30.3345C32.9708 31.3929 34.3743 33.1569 34.9006 34.0389C35.0761 34.2153 35.4269 34.3918 35.6024 34.2153C36.655 33.6861 37.7076 33.5097 38.4094 33.6861C38.5848 33.6861 38.5848 33.6861 38.7603 33.5097V33.1569C38.4094 32.6277 37.8831 31.7457 37.8831 30.3345C37.8831 29.9817 37.7076 29.8053 37.3568 29.8053C36.3041 29.8053 34.1989 29.4525 32.6199 28.9233C32.269 28.7468 32.0936 28.394 32.269 28.0412C32.4445 27.1592 32.4445 26.4536 32.269 25.5716C32.269 25.2188 32.269 25.0424 32.6199 24.866C36.3041 22.5727 44.3743 18.3391 49.8129 21.3379C54.5497 24.3368 54.7252 29.8053 52.6199 33.6861ZM25.6024 31.3929C24.9006 31.2165 24.0234 30.6873 23.4971 30.1581C23.3217 29.9817 22.7954 29.8053 22.6199 30.1581C21.3918 31.2165 19.9883 32.9805 19.462 33.8625C19.2866 34.0389 18.9357 34.2153 18.7603 34.0389C17.7076 33.5097 16.655 33.3333 15.9533 33.5097C15.7778 33.5097 15.7778 33.5097 15.6024 33.3333V32.9805C15.9533 32.4513 16.4796 31.5693 16.4796 30.1581C16.4796 29.8053 16.655 29.6289 17.0059 29.6289C18.0585 29.6289 20.1638 29.276 21.7427 28.7468C22.0936 28.5704 22.269 28.2176 22.0936 27.8648C21.9182 26.9828 21.9182 26.2772 22.0936 25.3952C22.0936 25.0424 22.0936 24.866 21.7427 24.6896C18.0585 22.3963 9.98834 18.1627 4.54975 21.1615C-0.713411 24.1604 -0.888851 29.8053 1.39185 33.6861C3.14624 36.8614 5.2515 37.7434 6.12869 38.0962C6.30413 38.0962 6.47957 38.2726 6.47957 38.449C6.47957 38.6254 6.65501 38.8018 6.47957 38.8018C6.30413 39.8602 6.12869 42.1535 7.88308 45.1523C10.1638 49.0332 15.0761 51.6793 20.1638 48.6804C25.6024 45.5051 25.7778 36.5086 25.7778 32.0985C26.1287 31.7457 25.9533 31.5693 25.6024 31.3929ZM30.1638 26.63C30.1638 24.866 28.7603 23.6312 27.1813 23.6312C25.4269 23.6312 24.1989 25.0424 24.1989 26.63C24.1989 28.394 25.6024 29.6289 27.1813 29.6289C28.7603 29.6289 30.1638 28.2176 30.1638 26.63ZM22.7954 23.1019C22.9708 23.2783 23.3217 23.1019 23.4971 22.9255C24.0234 22.3963 24.7252 21.8671 25.6024 21.6907C25.9533 21.5143 26.1287 21.3379 26.1287 20.9851C25.7778 19.3975 24.9006 17.2806 24.5497 16.3986C24.3743 16.0458 24.5497 15.8694 24.7252 15.693C25.7778 14.9874 26.3041 14.1054 26.655 13.5762C26.655 13.3998 26.8304 13.3998 27.0059 13.3998C27.1813 13.3998 27.1813 13.3998 27.3568 13.5762C27.7076 14.2818 28.234 15.1638 29.2866 15.693C29.462 15.8694 29.6375 16.2222 29.462 16.3986C29.1111 17.2806 28.234 19.2211 27.8831 20.9851C27.8831 21.3379 28.0585 21.6907 28.4094 21.6907C29.2866 21.8671 29.9883 22.3963 30.5147 22.9255C30.6901 23.1019 31.041 23.1019 31.2164 23.1019C35.0761 20.9851 42.7954 16.2222 42.7954 9.8717C42.7954 3.87399 38.0585 0.875137 33.6725 0.875137C30.1638 0.875137 28.234 2.10996 27.5322 2.81557C27.3568 2.99197 27.3568 2.99197 27.1813 2.99197C27.0059 2.99197 26.8304 2.99197 26.8304 2.81557C26.1287 2.10996 24.1989 0.875137 20.6901 0.875137C16.1287 0.875137 11.5673 3.87399 11.5673 9.8717C11.3919 16.2222 19.1111 20.9851 22.7954 23.1019Z" fill="white"/>
</svg>
